<svg xmlns="http://www.w3.org/2000/svg" viewBox="0 0 512 512" fill="currentColor">
  <path d="M397.78 316h-205l-25.39-58a15 15 0 0 1 13.8-20.4h196.42a15 15 0 0 1 13.8 20.4z"/>
  <path d="M222 450a57.48 57.48 0 1 1 57.48-57.48A57.54 57.54 0 0 1 222 450zm0-89.48a32 32 0 1 0 32 32 32 32 0 0 0-32-32zM363.75 450a57.48 57.48 0 1 1 57.48-57.48 57.54 57.54 0 0 1-57.48 57.48zm0-89.48a32 32 0 1 0 32 32 32 32 0 0 0-32-32z"/>
  <path d="M409.75 60H102.25A45.25 45.25 0 0 0 57 105.25v301.5A45.25 45.25 0 0 0 102.25 452h307.5A45.25 45.25 0 0 0 455 406.75v-301.5A45.25 45.25 0 0 0 409.75 60zm19.75 346.75a19.75 19.75 0 0 1-19.75 19.75H102.25a19.75 19.75 0 0 1-19.75-19.75v-301.5a19.75 19.75 0 0 1 19.75-19.75h307.5a19.75 19.75 0 0 1 19.75 19.75z"/>
  <path d="M347.22 180.72c-28.52-28.52-66.41-44.24-106.72-44.24s-78.2 15.72-106.72 44.24a12.75 12.75 0 1 0 18.04 18.04c22.68-22.68 52.84-35.16 88.68-35.16s66 12.48 88.68 35.16a12.75 12.75 0 1 0 18.04-18.04z"/>
</svg> 